<svg version="1" xmlns="http://www.w3.org/2000/svg" width="346.667" height="346.667" viewBox="0 0 260.000000 260.000000"><path d="M19.4 38.8c-2.8 1-6.3 2.8-7.9 4-7 5.5-10.8 16-8.6 23.8C6 77.9 13.7 83 36.9 89c6 1.6 10.5 6.1 9.6 9.8-.9 3.7-2.6 5.2-6.9 6.2-7.2 1.6-13.8-2.2-15.6-9.2-1.1-3.7-1.2-3.8-5.8-3.8-2.6 0-7.7.3-11.4.7l-6.8.6v3.6c0 5.3 5 15.1 9.9 19.3 2.5 2.1 6.5 4.2 10 5.2 7.5 2.1 23.9 2.1 30.9.1C69.2 116 77.1 92.9 65.3 79c-4.5-5.2-10.9-8.4-23.1-11.6-16.1-4.2-18.3-5.6-15.9-10.4 1.5-2.9 5.4-4.1 10.2-3 4.6 1 6.1 2.4 7.5 6.6 1.1 3.3 1.3 3.4 6.4 3.4 2.9 0 8.1-.3 11.5-.6 7-.8 7.4-1.6 4.6-9.5-2.4-6.6-6.2-10.9-12.4-13.8-4.9-2.2-7.1-2.6-17.6-2.8-9.6-.3-13 0-17.1 1.5zM75 39.2c0 1.3 15.7 78.2 16.6 81.1.5 1.6 1.8 1.7 12.7 1.5l12.2-.3 6.2-24c3.4-13.2 6.3-24.6 6.5-25.4.2-.8 3.3 10 6.9 24l6.6 25.4H167.4l8.2-40c4.6-22 8.3-40.8 8.4-41.8 0-1.5-1.2-1.7-11.4-1.7-10.1 0-11.5.2-12 1.7-.2 1-1.9 10.3-3.7 20.8-1.8 10.4-3.5 19.3-3.9 19.8-.3.4-3.1-9-6.1-20.8l-5.4-21.6-12 .3-11.9.3-5.7 22c-4.8 18.9-5.8 21.5-6.3 18.5-.4-1.9-2.2-11.8-4-22l-3.2-18.5-11.7-.3c-8.8-.2-11.7 0-11.7 1zM191 48v10l18.4.2 18.3.3-20.8 22-20.8 22-.1 9.7v9.8h74v-20l-21.1-.2-21-.3 21-22.5L260 56.6V38h-69v10zM2 178.4V222h28v-31.8l14.3-.4c15.9-.4 20.5-1.7 26.4-7.8 5.6-5.8 6.8-9.4 6.8-20.6 0-9.4-.2-10.4-3-14.9-2.1-3.3-4.7-5.7-8.5-7.9l-5.5-3.1-29.2-.3-29.3-.3v43.5zm44.9-22.6c4.7 3.5 4.7 10.5-.1 13.6-1.3.8-5.6 1.8-9.5 2.2l-7.3.7v-19.6l7.2.6c4.7.4 8.1 1.3 9.7 2.5zM92 178.5V222h71v-21h-43v-66H92v43.5zM175 178.5V222h27l.2-22.6.3-22.7 15.9 22.7 15.9 22.6H260v-87h-26l-.2 22.7-.3 22.8-15.9-22.8-15.9-22.7H175v43.5z"/></svg>